<svg viewBox="0 0 909 1286" version="1.1" xmlns="http://www.w3.org/2000/svg">
<defs>
<clipPath id="c0"><path d="M-.2 1284.1V-.2H909.1V1284.1Z"/></clipPath>
<clipPath id="c1"><path d="M99.2 155c-33.4 0-60.4-27-60.4-60.4c0-33.3 27-60.4 60.4-60.4c33.3 0 60.4 27.1 60.4 60.4c0 33.4-27.1 60.4-60.4 60.4Z"/></clipPath>
<style>
.g0{fill:#FFF;}
.g1{fill:#313C4E;}
.g2{fill:#989DA6;}
.g3{fill:#D3D3D3;}
</style>
</defs>
<path clip-path="url(#c0)" d="M0 0H908.8V1283.8H0V0Z" class="g0"/>
<path d="M0 182.9H908.8V284.5H0V182.9Z" class="g1"/>
<path d="M49.4 206.3c-.4 0-.7-.2-1-.4l-8-8V209c0 .7 .6 1.3 1.3 1.4l4.5-4.5c.2-.2 .5-.2 .7 0c.2 .2 .2 .5 0 .6L43 210.4H55.8l-3.9-3.9c-.2-.1-.2-.4 0-.6c.2-.2 .5-.2 .7 0l4.5 4.5c.7-.1 1.3-.7 1.3-1.4V197.9l-8 8c-.3 .2-.6 .4-1 .4Z" class="g0"/>
<path d="M49.7 205.2l8.4-8.3c-.3-.4-.7-.6-1.1-.6H41.8c-.4 0-.8 .2-1.1 .6l8.4 8.3c.2 .2 .5 .2 .6 0Z" class="g0"/>
<path d="M490.5 209c0 .3-.2 .5-.5 .5c-.3 0-.5-.2-.5-.5c0-.2 .2-.4 .5-.4c.3 0 .5 .2 .5 .4Z" class="g0"/>
<path d="M494.3 194.4h-8.5c-.8 0-1.4 .6-1.4 1.4v15.1c0 .8 .6 1.5 1.4 1.5h8.5c.7 0 1.4-.7 1.4-1.5V195.8c0-.8-.7-1.4-1.4-1.4ZM490 210.5c-.8 0-1.4-.7-1.4-1.5c0-.7 .6-1.4 1.4-1.4c.8 0 1.4 .7 1.4 1.4c0 .8-.6 1.5-1.4 1.5Zm1.4-12.3h-2.8c-.3 0-.5-.2-.5-.5c0-.3 .2-.5 .5-.5h2.8c.2 0 .4 .1 .5 .3c0 .1 0 .3 0 .4c-.1 .2-.3 .3-.5 .3Z" class="g0"/>
<path d="M49.5 228.1c-.8 0-1.5 .7-1.5 1.5c0 .9 .7 1.6 1.5 1.6c.9 0 1.6-.7 1.6-1.6c0-.8-.7-1.5-1.6-1.5Z" class="g0"/>
<path d="M49.5 224.8c-2.6 0-4.7 2.1-4.7 4.7c0 4 1.5 9.9 4 12.7c.2 .2 .5 .3 .7 .3c.3 0 .5-.1 .7-.3c2.5-2.8 4-8.7 4-12.7c0-2.6-2.1-4.7-4.7-4.7Zm0 7.3c-1.4 0-2.5-1.1-2.5-2.5c0-1.3 1.1-2.5 2.5-2.5c1.4 0 2.5 1.2 2.5 2.5c0 1.4-1.1 2.5-2.5 2.5Z" class="g0"/>
<path d="M481 229v-.9c0-.8 .7-1.5 1.5-1.5h4.2v1.5c0 .2 .2 .5 .5 .5c.3 0 .5-.3 .5-.5v-1.5h4.7v1.5c0 .2 .2 .5 .5 .5c.2 0 .4-.3 .4-.5v-1.5h4.3c.8 0 1.4 .7 1.4 1.5v.9c0 .3-.2 .5-.5 .5h-17c-.1 0-.2-.1-.3-.1c-.1-.1-.2-.3-.2-.4Z" class="g0"/>
<path d="M481 230.9v9.4c0 .8 .7 1.5 1.5 1.5h15.1c.8 0 1.4-.7 1.4-1.5v-9.4c0-.1 0-.2-.1-.3c-.1-.1-.2-.2-.4-.2h-17c-.1 0-.2 .1-.3 .2c-.1 .1-.2 .2-.2 .3Zm12.8 1.4h1.9c.3 0 .5 .2 .5 .5c0 .3-.2 .5-.5 .5h-1.9c-.3 0-.5-.2-.5-.5c0-.3 .2-.5 .5-.5Zm0 2.9h1.9c.3 0 .5 .2 .5 .4c0 .3-.2 .5-.5 .5h-1.9c-.3 0-.5-.2-.5-.5c0-.2 .2-.4 .5-.4Zm0 2.8h1.9c.3 0 .5 .2 .5 .5c0 .2-.2 .5-.5 .5h-1.9c-.3 0-.5-.3-.5-.5c0-.3 .2-.5 .5-.5Zm-4.7-5.7H491c.2 0 .4 .2 .4 .5c0 .3-.2 .5-.4 .5h-1.9c-.3 0-.5-.2-.5-.5c0-.3 .2-.5 .5-.5Zm0 2.9H491c.2 0 .5 .2 .5 .4c0 .3-.3 .5-.5 .5h-1.9c-.3 0-.5-.2-.5-.5c0-.2 .2-.4 .5-.4Zm0 2.8H491c.2 0 .5 .2 .5 .5c0 .2-.3 .5-.5 .5h-1.9c-.3 0-.5-.3-.5-.5c0-.3 .2-.5 .5-.5Zm-4.8-5.7h1.9c.3 0 .5 .2 .5 .5c0 .3-.2 .5-.5 .5h-1.9c-.1 0-.3-.1-.4-.2c-.1-.2-.1-.4 0-.5c.1-.2 .3-.3 .4-.3Zm0 2.9h1.9c.3 0 .5 .2 .5 .4c0 .3-.2 .5-.5 .5h-1.9c-.2 0-.4-.2-.4-.5c0-.2 .2-.4 .4-.4Zm0 2.8h1.9c.3 0 .5 .2 .5 .5c0 .2-.2 .5-.5 .5h-1.9c-.2 0-.4-.3-.4-.5c0-.3 .2-.5 .4-.5Z" class="g0"/>
<path d="M50.1 265.6l1.5-1.2l-5.1-1.5l1.4 5.2l1.2-1.5l2.5 2.4c.1 .2 .3 .2 .4 0l.6-.5c0-.1 .1-.1 .1-.2c0-.1-.1-.2-.1-.2l-2.5-2.5Z" class="g0"/>
<path d="M57.1 258.6v-1.7c0-.9-.8-1.6-1.7-1.6h-12c-.9 0-1.6 .7-1.6 1.6v1.7c0 .2 0 .3 .1 .4c.1 .1 .2 .1 .3 .1H56.6c.1 0 .2 0 .3-.1c.1-.1 .2-.2 .2-.4ZM47 256.8h1c.2 0 .4 .2 .4 .4c0 .3-.2 .5-.4 .5H47c-.2 0-.4-.2-.4-.5c0-.2 .2-.4 .4-.4Zm-2.8 0h1c.2 0 .4 .2 .4 .4c0 .3-.2 .5-.4 .5h-1c-.2 0-.4-.2-.4-.5c0-.2 .2-.4 .4-.4Z" class="g0"/>
<path d="M41.8 260.5v10.8c0 1 .7 1.7 1.6 1.7h12c.9 0 1.7-.7 1.7-1.7V260.5c0-.1-.1-.2-.2-.3c-.1-.1-.2-.1-.3-.1H42.2c-.2 0-.4 .2-.4 .4Zm11.4 8.7l-.5 .5c-.5 .5-1.3 .5-1.8 0L49.2 268l-.7 .8c-.2 .3-.5 .4-.8 .3c-.3 0-.6-.3-.7-.6L45.5 263c-.1-.3 0-.6 .2-.8c.2-.2 .6-.3 .9-.2l5.4 1.5c.3 .1 .6 .4 .6 .7c.1 .3 0 .6-.3 .8l-.8 .7l1.7 1.7c.3 .2 .4 .6 .4 .9c0 .3-.1 .6-.4 .9Z" class="g0"/>
<path d="M496.9 256.1H483.2c-.4 0-.7 .1-.9 .3c-.2 .3-.3 .6-.3 .9V271c0 .3 .1 .6 .3 .8c.2 .2 .5 .4 .9 .4h13.7c.3 0 .6-.2 .8-.4c.2-.2 .4-.5 .4-.8V257.3c0-.3-.2-.6-.4-.9c-.2-.2-.5-.3-.8-.3Zm-10.2 13.7h-2.4v-7.7h2.4v7.7Zm-1.2-8.7c-.7 0-1.3-.6-1.3-1.4c0-.8 .6-1.4 1.3-1.4c.8 0 1.4 .6 1.4 1.4c0 .8-.6 1.4-1.4 1.4Zm10.2 8.7h-2.4v-3.7c0-.9 0-2.1-1.2-2.1c-1.3 0-1.5 1-1.5 2v3.8h-2.4v-7.7h2.3v1.1h.1c.4-.8 1.3-1.3 2.2-1.3c2.4 0 2.9 1.6 2.9 3.7v4.2Z" class="g0"/>
<path d="M0 346H18.2v1.4H0V346Z" class="g1"/>
<path d="M41 441.7c.9 0 1.5 .7 1.5 1.5c0 .9-.6 1.5-1.5 1.5c-.8 0-1.5-.6-1.5-1.5c0-.8 .7-1.5 1.5-1.5Zm0-1.4c-1.6 0-2.9 1.3-2.9 2.9c0 1.7 1.3 3 2.9 3c1.7 0 3-1.3 3-3c0-1.6-1.3-2.9-3-2.9Z" class="g1"/>
<path d="M41 481.2c.9 0 1.5 .7 1.5 1.5c0 .8-.6 1.5-1.5 1.5c-.8 0-1.5-.7-1.5-1.5c0-.8 .7-1.5 1.5-1.5Zm0-1.5c-1.6 0-2.9 1.3-2.9 3c0 1.6 1.3 3 2.9 3c1.7 0 3-1.4 3-3c0-1.7-1.3-3-3-3Z" class="g1"/>
<path d="M41 503.9c.9 0 1.5 .6 1.5 1.5c0 .8-.6 1.5-1.5 1.5c-.8 0-1.5-.7-1.5-1.5c0-.9 .7-1.5 1.5-1.5Zm0-1.5c-1.6 0-2.9 1.3-2.9 3c0 1.6 1.3 2.9 2.9 2.9c1.7 0 3-1.3 3-2.9c0-1.7-1.3-3-3-3Z" class="g1"/>
<path d="M41 543.3c.9 0 1.5 .7 1.5 1.5c0 .9-.6 1.5-1.5 1.5c-.8 0-1.5-.6-1.5-1.5c0-.8 .7-1.5 1.5-1.5Zm0-1.4c-1.6 0-2.9 1.3-2.9 2.9c0 1.7 1.3 3 2.9 3c1.7 0 3-1.3 3-3c0-1.6-1.3-2.9-3-2.9Z" class="g1"/>
<path d="M41 582.8c.9 0 1.5 .7 1.5 1.5c0 .8-.6 1.5-1.5 1.5c-.8 0-1.5-.7-1.5-1.5c0-.8 .7-1.5 1.5-1.5Zm0-1.5c-1.6 0-2.9 1.3-2.9 3c0 1.6 1.3 3 2.9 3c1.7 0 3-1.4 3-3c0-1.7-1.3-3-3-3Z" class="g1"/>
<path d="M0 628.1H18.2v1.4H0v-1.4Z" class="g1"/>
<path d="M41 723.9c.9 0 1.5 .6 1.5 1.4c0 .9-.6 1.5-1.5 1.5c-.8 0-1.5-.6-1.5-1.5c0-.8 .7-1.4 1.5-1.4Zm0-1.5c-1.6 0-2.9 1.3-2.9 2.9c0 1.7 1.3 3 2.9 3c1.7 0 3-1.3 3-3c0-1.6-1.3-2.9-3-2.9Z" class="g1"/>
<path d="M41 763.3c.9 0 1.5 .7 1.5 1.5c0 .8-.6 1.5-1.5 1.5c-.8 0-1.5-.7-1.5-1.5c0-.8 .7-1.5 1.5-1.5Zm0-1.5c-1.6 0-2.9 1.3-2.9 3c0 1.7 1.3 3 2.9 3c1.7 0 3-1.3 3-3c0-1.7-1.3-3-3-3Z" class="g1"/>
<path d="M41 802.8c.9 0 1.5 .6 1.5 1.4c0 .9-.6 1.5-1.5 1.5c-.8 0-1.5-.6-1.5-1.5c0-.8 .7-1.4 1.5-1.4Zm0-1.5c-1.6 0-2.9 1.3-2.9 2.9c0 1.7 1.3 3 2.9 3c1.7 0 3-1.3 3-3c0-1.6-1.3-2.9-3-2.9Z" class="g1"/>
<path d="M0 909.5H18.2v1.4H0v-1.4Z" class="g1"/>
<path fill-rule="evenodd" d="M486.4 337.3H750.3c2.5 0 4.5 2 4.5 4.5v16.8c0 2.5-2 4.5-4.5 4.5H486.4c-2.6 0-4.6-2-4.6-4.5V341.8c0-2.5 2-4.5 4.6-4.5Z" class="g2"/>
<path fill-rule="evenodd" d="M486.4 376.4h289c2.5 0 4.6 2 4.6 4.5v16.8c0 2.5-2.1 4.5-4.6 4.5h-289c-2.6 0-4.6-2-4.6-4.5V380.9c0-2.5 2-4.5 4.6-4.5Z" class="g2"/>
<path fill-rule="evenodd" d="M486.4 415.5H675.9c2.5 0 4.6 2 4.6 4.5v16.8c0 2.5-2.1 4.5-4.6 4.5H486.4c-2.6 0-4.6-2-4.6-4.5V420c0-2.5 2-4.5 4.6-4.5Z" class="g2"/>
<path fill-rule="evenodd" d="M486.4 454.6H681.5c2.5 0 4.6 2 4.6 4.5v16.8c0 2.5-2.1 4.5-4.6 4.5H486.4c-2.6 0-4.6-2-4.6-4.5V459.1c0-2.5 2-4.5 4.6-4.5Z" class="g2"/>
<path fill-rule="evenodd" d="M697.9 454.6H824c2.5 0 4.5 2 4.5 4.5v16.8c0 2.5-2 4.5-4.5 4.5H697.9c-2.5 0-4.5-2-4.5-4.5V459.1c0-2.5 2-4.5 4.5-4.5Z" class="g2"/>
<path fill-rule="evenodd" d="M486.4 493.7h40.1c2.5 0 4.5 2 4.5 4.5V515c0 2.5-2 4.5-4.5 4.5H486.4c-2.6 0-4.6-2-4.6-4.5V498.2c0-2.5 2-4.5 4.6-4.5Z" class="g2"/>
<path fill-rule="evenodd" d="M99.2 33.5c33.7 0 61.1 27.4 61.1 61.1c0 33.7-27.4 61.1-61.1 61.1c-33.8 0-61.1-27.4-61.1-61.1c0-33.7 27.3-61.1 61.1-61.1Zm0 .7c33.3 0 60.4 27.1 60.4 60.4c0 33.4-27.1 60.4-60.4 60.4c-33.4 0-60.4-27-60.4-60.4c0-33.3 27-60.4 60.4-60.4Z" class="g3"/>
<image clip-path="url(#c1)" preserveAspectRatio="none" x="39" y="34" width="121" height="121" href="img/1.jpg"/>
</svg>